<svg width="329" height="53" viewBox="0 0 329 53" fill="none" xmlns="http://www.w3.org/2000/svg">
<path d="M24.8 11L16.16 31L7.64 11H0.64L12.72 39H19.12L31.24 11H24.8ZM36.6484 14.48C38.9684 14.48 40.5284 12.96 40.5284 10.88C40.5284 8.96 38.9684 7.52 36.6484 7.52C34.3284 7.52 32.7684 9.04 32.7684 11C32.7684 12.96 34.3284 14.48 36.6484 14.48ZM33.5284 39H39.7684V17.48H33.5284V39ZM66.6397 28.32C66.6397 21.4 61.7597 17.16 55.4397 17.16C48.8797 17.16 43.9597 21.8 43.9597 28.24C43.9597 34.64 48.7997 39.32 56.2397 39.32C60.1197 39.32 63.1197 38.12 65.1197 35.84L61.7997 32.24C60.3197 33.64 58.6797 34.32 56.3997 34.32C53.1197 34.32 50.8397 32.68 50.2397 30H66.5197C66.5597 29.48 66.6397 28.8 66.6397 28.32ZM55.4797 21.88C58.2797 21.88 60.3197 23.64 60.7597 26.36H50.1597C50.5997 23.6 52.6397 21.88 55.4797 21.88ZM99.4434 17.48L94.2034 32.04L89.0834 17.48H83.8034L78.5234 32.04L73.4434 17.48H67.5634L75.3234 39H81.3234L86.3234 25.64L91.1634 39H97.1634L104.963 17.48H99.4434ZM146.753 17.16C143.513 17.16 140.713 18.48 138.993 20.68C137.473 18.32 134.913 17.16 131.913 17.16C129.153 17.16 126.753 18.12 125.153 19.96V17.48H119.193V39H125.433V28.2C125.433 24.36 127.393 22.56 130.153 22.56C132.753 22.56 134.233 24.16 134.233 27.64V39H140.473V28.2C140.473 24.36 142.433 22.56 145.233 22.56C147.753 22.56 149.313 24.16 149.313 27.64V39H155.553V26.68C155.553 20.12 151.873 17.16 146.753 17.16ZM169.826 17.16C166.386 17.16 162.906 18.08 160.546 19.76L162.786 24.12C164.346 22.88 166.706 22.12 168.986 22.12C172.346 22.12 173.946 23.68 173.946 26.36H168.986C162.426 26.36 159.746 29 159.746 32.8C159.746 36.52 162.746 39.32 167.786 39.32C170.946 39.32 173.186 38.28 174.346 36.32V39H180.186V26.72C180.186 20.2 176.386 17.16 169.826 17.16ZM169.346 35.12C167.146 35.12 165.826 34.08 165.826 32.52C165.826 31.08 166.746 30 169.666 30H173.946V32.2C173.226 34.16 171.426 35.12 169.346 35.12ZM198.553 17.16C195.673 17.16 193.353 18.08 191.793 19.96V17.48H185.833V46.76H192.073V36.72C193.673 38.48 195.873 39.32 198.553 39.32C204.593 39.32 209.273 35 209.273 28.24C209.273 21.48 204.593 17.16 198.553 17.16ZM197.473 34.2C194.353 34.2 191.993 31.96 191.993 28.24C191.993 24.52 194.353 22.28 197.473 22.28C200.593 22.28 202.953 24.52 202.953 28.24C202.953 31.96 200.593 34.2 197.473 34.2Z" fill="#14274A"/>
<path d="M327.768 28.7678C328.744 27.7915 328.744 26.2085 327.768 25.2322L311.858 9.32233C310.882 8.34602 309.299 8.34602 308.322 9.32233C307.346 10.2986 307.346 11.8816 308.322 12.8579L322.464 27L308.322 41.1421C307.346 42.1184 307.346 43.7014 308.322 44.6777C309.299 45.654 310.882 45.654 311.858 44.6777L327.768 28.7678ZM245 29.5H326V24.5H245V29.5Z" fill="#14274A"/>
</svg>
